<?xml version="1.0" encoding="utf-8"?>
<!-- Generator: Adobe Illustrator 22.1.0, SVG Export Plug-In . SVG Version: 6.00 Build 0)  -->
<svg version="1.1" id="Layer_1" xmlns="http://www.w3.org/2000/svg" xmlns:xlink="http://www.w3.org/1999/xlink" x="0px" y="0px"
	 viewBox="0 0 256 256" style="enable-background:new 0 0 256 256;" xml:space="preserve">
<style type="text/css">
	.st0{fill:#D73735;}
	.st1{fill:#F85252;}
	.st2{fill:#EDAF85;}
	.st3{fill:#F7C09A;}
	.st4{fill:#D8D6D7;}
	.st5{fill:#FFFFFF;}
	.st6{fill:#1C868E;}
	.st7{fill:#40C4DF;}
	.st8{fill:#491352;}
	.st9{fill:#56C1B3;}
	.st10{fill:#7BEFE4;}
</style>
<g>
	<rect x="114.17" y="147.67" class="st4" width="27.66" height="84.16"/>
	<rect x="131.09" y="147.67" class="st5" width="10.74" height="84.16"/>
	<path class="st4" d="M245.36,165.897H10.64c-2.761,0-5-2.239-5-5V8c0-2.761,2.239-5,5-5h234.72c2.761,0,5,2.239,5,5v152.897
		C250.36,163.658,248.121,165.897,245.36,165.897z"/>
	<path class="st9" d="M237.36,21v126.9c0,2.76-2.24,5-5,5H23.64c-2.76,0-5-2.24-5-5V21c0-2.76,2.24-5,5-5h208.72
		C235.12,16,237.36,18.24,237.36,21z"/>
	<path class="st10" d="M237.36,21v126.9c0,2.76-2.24,5-5,5H45.39c-2.76,0-5-2.24-5-5V21c0-2.76,2.24-5,5-5h186.97
		C235.12,16,237.36,18.24,237.36,21z"/>
	<path class="st4" d="M191.67,236.83v11.67c0,2.76-2.24,5-5,5H69.33c-2.76,0-5-2.24-5-5v-11.67c0-2.76,2.24-5,5-5h117.34
		C189.43,231.83,191.67,234.07,191.67,236.83z"/>
	<path class="st5" d="M191.67,236.83v11.67c0,2.76-2.24,5-5,5H85.33c-2.76,0-5-2.24-5-5v-11.67c0-2.76,2.24-5,5-5h101.34
		C189.43,231.83,191.67,234.07,191.67,236.83z"/>
	<g>
		<g>
			<g>
				<path class="st7" d="M74.079,105.024L41.595,74.992c-3.462-3.201-3.467-8.684,0-11.889l32.484-30.032
					c3.282-3.036,8.404-2.836,11.44,0.448c3.036,3.283,2.836,8.405-0.448,11.44L59.017,69.047l26.054,24.089
					c3.284,3.035,3.484,8.157,0.448,11.44C82.479,107.863,77.358,108.057,74.079,105.024z"/>
			</g>
			<g>
				<path class="st7" d="M181.922,33.07l32.484,30.032c3.462,3.201,3.467,8.684,0,11.889l-32.484,30.032
					c-3.282,3.036-8.404,2.836-11.44-0.448c-3.036-3.283-2.836-8.405,0.448-11.44l26.054-24.089L170.93,44.958
					c-3.284-3.035-3.484-8.157-0.448-11.44C173.521,30.232,178.642,30.038,181.922,33.07z"/>
			</g>
		</g>
		<g>
			<path class="st7" d="M121.146,93.561c-5.025,0-8.962,3.936-8.962,8.962c0,5.025,3.937,8.961,8.962,8.961
				c4.825,0,8.749-4.02,8.749-8.961C129.895,97.581,125.971,93.561,121.146,93.561z"/>
			<path class="st7" d="M127.841,27.516c-7.772,0-14.58,2.55-19.173,7.181c-4.219,4.254-6.42,9.985-6.366,16.572l0.02,2.353h13.864
				v-2.373c0-6.934,4.287-10.911,11.761-10.911c7.364,0,11.761,4.278,11.761,11.442c0,9.229-5.622,12.824-20.05,12.824h-5.516
				l0.546,21.536h13.008l0.321-10.147c16.36-0.739,25.682-9.471,25.682-24.213C153.699,37.267,143.307,27.516,127.841,27.516z"/>
		</g>
	</g>
	<g>
		<path class="st8" d="M245.36,0.75H10.64c-3.859,0-7,3.14-7,7v152.896c0,3.86,3.141,7,7,7h101.53v61.932H69.333
			c-3.859,0-7,3.14-7,7v11.671c0,3.86,3.141,7,7,7h117.334c3.859,0,7-3.14,7-7v-11.671c0-3.86-3.141-7-7-7H143.83v-61.932h101.53
			c3.859,0,7-3.14,7-7V7.75C252.36,3.89,249.22,0.75,245.36,0.75z M186.667,233.579c1.654,0,3,1.346,3,3v11.671c0,1.654-1.346,3-3,3
			H69.333c-1.654,0-3-1.346-3-3v-11.671c0-1.654,1.346-3,3-3C71.108,233.579,184.35,233.579,186.667,233.579z M116.17,229.579
			v-61.932h23.66v61.932H116.17z M248.36,160.646c0,1.654-1.346,3-3,3H10.64c-1.654,0-3-1.346-3-3V7.75c0-1.654,1.346-3,3-3H245.36
			c1.654,0,3,1.346,3,3V160.646z"/>
		<path class="st8" d="M232.36,13.75H23.641c-3.859,0-7,3.14-7,7v126.896c0,3.86,3.141,7,7,7h208.72c3.859,0,7-3.14,7-7V20.75
			C239.36,16.89,236.22,13.75,232.36,13.75z M235.36,147.646c0,1.654-1.346,3-3,3H23.641c-1.654,0-3-1.346-3-3V20.75
			c0-1.654,1.346-3,3-3h208.72c1.654,0,3,1.346,3,3V147.646z"/>
		<path class="st8" d="M72.722,106.493c1.938,1.792,4.396,2.678,6.849,2.678c2.719,0,5.43-1.088,7.417-3.237
			c1.831-1.98,2.781-4.554,2.676-7.249c-0.105-2.695-1.255-5.187-3.235-7.017L61.963,69.047l24.465-22.62
			c1.98-1.831,3.13-4.323,3.235-7.018s-0.845-5.269-2.676-7.249s-4.323-3.129-7.018-3.234c-2.699-0.102-5.269,0.845-7.248,2.675
			L40.237,61.634c-2.06,1.904-3.241,4.606-3.241,7.413c0,2.808,1.182,5.51,3.241,7.414L72.722,106.493z M42.952,64.572
			l32.485-30.033c1.135-1.05,2.594-1.62,4.131-1.62c0.081,0,0.163,0.001,0.244,0.005c1.627,0.063,3.132,0.757,4.237,1.953
			c1.106,1.195,1.68,2.75,1.616,4.376c-0.063,1.627-0.757,3.132-1.953,4.237L57.659,67.579c-0.41,0.379-0.643,0.911-0.643,1.469
			s0.232,1.09,0.643,1.468l26.054,24.09c1.196,1.105,1.89,2.61,1.953,4.236c0.063,1.627-0.51,3.181-1.616,4.376
			c-2.281,2.467-6.145,2.619-8.613,0.338v0L42.952,73.523c-1.261-1.166-1.956-2.756-1.956-4.477
			C40.996,67.327,41.691,65.738,42.952,64.572z"/>
		<path class="st8" d="M169.013,105.934c3.792,4.101,10.178,4.34,14.267,0.559l32.483-30.032c4.326-4,4.308-10.844,0-14.827
			l-32.483-30.032c-4.086-3.777-10.484-3.529-14.267,0.559c-3.779,4.087-3.528,10.487,0.56,14.266l24.465,22.621l-24.465,22.62
			C165.484,95.446,165.233,101.846,169.013,105.934z M172.287,94.604l26.054-24.088c0.856-0.791,0.856-2.147,0-2.937l-26.054-24.09
			c-1.195-1.105-1.889-2.61-1.952-4.236c-0.213-5.385,6.239-8.403,10.229-4.714c0,0,0,0,0,0l32.483,30.032
			c2.609,2.413,2.614,6.534,0,8.952l-32.484,30.033c-2.483,2.299-6.335,2.126-8.613-0.337
			C169.668,100.75,169.819,96.886,172.287,94.604z"/>
		<path class="st8" d="M121.146,91.561c-6.146,0-10.962,4.815-10.962,10.962c0,6.146,4.815,10.961,10.962,10.961
			c5.927,0,10.749-4.917,10.749-10.961C131.896,96.479,127.073,91.561,121.146,91.561z M121.146,109.484
			c-3.904,0-6.962-3.058-6.962-6.961s3.058-6.962,6.962-6.962c3.722,0,6.749,3.123,6.749,6.962
			C127.896,106.361,124.868,109.484,121.146,109.484z"/>
		<path class="st8" d="M102.322,55.622h13.864c1.104,0,2-0.896,2-2v-2.373c0-7.365,5.308-8.911,9.761-8.911
			c6.295,0,9.762,3.353,9.762,9.442c0,6.855-2.954,10.824-18.051,10.824h-5.516c-1.123,0-2.028,0.926-1.999,2.051l0.546,21.536
			c0.027,1.084,0.914,1.949,1.999,1.949h13.008c1.08,0,1.965-0.857,1.999-1.937l0.263-8.33c16.39-1.365,25.741-10.795,25.741-26.093
			c0-35.324-55.675-34.852-55.397-0.494l0.021,2.354C100.332,54.737,101.225,55.622,102.322,55.622z M151.699,51.78
			c0,13.633-8.442,21.523-23.772,22.215c-1.045,0.047-1.876,0.89-1.909,1.935l-0.259,8.209h-9.12l-0.444-17.536h3.464
			c10.904,0,22.051-1.761,22.051-14.824c0-8.292-5.273-13.442-13.762-13.442c-8.289,0-13.761,4.394-13.761,13.284h-9.882
			C104.068,21.737,151.699,22.132,151.699,51.78z"/>
		<path class="st8" d="M219.25,117.5H36.75c-1.104,0-2,0.896-2,2s0.896,2,2,2h182.5c1.104,0,2-0.896,2-2S220.354,117.5,219.25,117.5
			z"/>
		<path class="st8" d="M219.25,129H36.75c-1.104,0-2,0.896-2,2s0.896,2,2,2h182.5C221.892,133,221.896,129,219.25,129z"/>
		<path class="st8" d="M219.25,140.5H36.75c-1.104,0-2,0.896-2,2s0.896,2,2,2h182.5C221.892,144.5,221.896,140.5,219.25,140.5z"/>
	</g>
</g>
</svg>
